<?xml version="1.0" encoding="UTF-8" standalone="no"?>
<!-- Created with Inkscape (http://www.inkscape.org/) -->

<svg
   width="110"
   height="110"
   viewBox="0 0 29.104166 29.104167"
   version="1.1"
   id="svg1"
   xml:space="preserve"
   inkscape:version="1.3.2 (091e20e, 2023-11-25, custom)"
   sodipodi:docname="J-logo.svg"
   inkscape:export-filename="J-logo-white.png"
   inkscape:export-xdpi="800"
   inkscape:export-ydpi="800"
   xmlns:inkscape="http://www.inkscape.org/namespaces/inkscape"
   xmlns:sodipodi="http://sodipodi.sourceforge.net/DTD/sodipodi-0.dtd"
   xmlns="http://www.w3.org/2000/svg"
   xmlns:svg="http://www.w3.org/2000/svg"><sodipodi:namedview
     id="namedview1"
     pagecolor="#ffffff"
     bordercolor="#000000"
     borderopacity="0.25"
     inkscape:showpageshadow="2"
     inkscape:pageopacity="0.0"
     inkscape:pagecheckerboard="0"
     inkscape:deskcolor="#d1d1d1"
     inkscape:document-units="mm"
     showguides="true"
     inkscape:zoom="2.4340424"
     inkscape:cx="53.614513"
     inkscape:cy="43.343534"
     inkscape:window-width="1280"
     inkscape:window-height="721"
     inkscape:window-x="-7"
     inkscape:window-y="-7"
     inkscape:window-maximized="1"
     inkscape:current-layer="layer2"
     inkscape:export-bgcolor="#ffffffff" /><defs
     id="defs1" /><g
     inkscape:groupmode="layer"
     id="layer2"
     inkscape:label="图层 2"><path
       style="fill:#1a1a1a;fill-opacity:1;stroke:#000000;stroke-width:0.119114;stroke-dasharray:none;stroke-opacity:1"
       d="m 10.179523,7.1280024 c 0,0 2.338764,-3.867667 3.259201,-4.0122207 1.104811,-0.1735076 2.675523,0.6121544 5.201754,0.8156667 1.525535,0.1228886 1.915865,-0.4276241 1.915865,-0.4276241 0,0 -1.564929,2.171815 -2.720889,2.716492 C 16.974526,6.6259699 14.254845,5.6292229 12.628609,5.4906541 11.444203,5.3897295 10.179523,7.1280024 10.179523,7.1280024 Z"
       id="path26"
       sodipodi:nodetypes="csscssc" /><path
       style="fill:#1a1a1a;fill-opacity:1;stroke:#000000;stroke-width:0.119114;stroke-dasharray:none;stroke-opacity:1"
       d="m 5.2707511,27.475968 c 0,0 2.3387639,-3.867674 3.2591937,-4.012221 1.10482,-0.173507 2.6755252,0.612155 5.2017622,0.815659 1.525534,0.122896 1.915864,-0.427616 1.915864,-0.427616 0,0 -1.564929,2.171815 -2.720896,2.716484 -0.860927,0.405662 -3.5806012,-0.591092 -5.2068369,-0.729661 -1.1844141,-0.100918 -2.449087,1.637355 -2.449087,1.637355 z"
       id="path26-9"
       sodipodi:nodetypes="csscssc" /><path
       style="fill:#1a1a1a;stroke:#000000;stroke-width:0.119114;stroke-dasharray:none;stroke-opacity:1"
       d="m 20.754094,4.5348831 c 0,0 -3.470389,2.152952 -3.459166,4.8655309 l 0.05247,12.686548 c 0,0 2.126965,-2.202541 2.124916,-3.801537 L 19.458895,7.8040338 c -0.003,-2.3772425 1.295178,-3.2691507 1.295178,-3.2691507 z"
       id="path27"
       sodipodi:nodetypes="cscsscc" /><path
       style="fill:#d40000;stroke:#000000;stroke-width:0.119114;stroke-dasharray:none;stroke-opacity:1"
       d="m 17.131206,6.6427005 -3.796709,3.8871115 c 0,0 -0.60962,0.506072 -0.420805,2.275147 0.203528,1.906959 1.728987,2.421206 1.728987,2.421206 l 1.976164,-2.448304 c 0,0 -1.649018,-0.947431 -1.559287,-2.419574 L 15.16239,8.6711988"
       id="path29"
       sodipodi:nodetypes="ccsccsc" /><path
       style="fill:#d40000;stroke:#000000;stroke-width:0.119114;stroke-dasharray:none;stroke-opacity:1"
       d="m 14.574018,15.414825 -1.816617,2.617325 c 0,0 4.052174,1.207204 3.591378,3.704205 -0.140925,0.763677 -0.711932,2.110717 -0.711932,2.110717 0,0 3.502751,-2.458306 2.109375,-5.48662 -0.429465,-0.933384 -3.172204,-2.945627 -3.172204,-2.945627 z"
       id="path30"
       sodipodi:nodetypes="ccscscc" /><path
       style="fill:#ffffff;fill-opacity:1;stroke:#000000;stroke-width:0.119114"
       d="m 20.536653,3.5336727 c 0,0 0.463748,-0.3365292 0.830095,-0.7022062 0.36634,-0.3656842 0.305749,-0.9601606 0.074,-0.9228895 -0.231743,0.037264 0.03391,0.303357 -0.170318,0.7396413 -0.101535,0.2169496 -0.733783,0.8854544 -0.733783,0.8854544 z"
       id="path1"
       sodipodi:nodetypes="cszsc" /><path
       style="fill:#ffffff;fill-opacity:0;stroke:#000000;stroke-width:0.0595568;stroke-linecap:round;stroke-linejoin:bevel;stroke-dasharray:none;stroke-opacity:1"
       d="m 21.074534,4.7124375 c 0,0 -0.823992,1.6479829 -0.869766,2.7008633 -0.04576,1.0528805 0.04576,8.8808072 0.04576,8.8808072 0,0 0.09156,0.778216 -0.549328,2.105761"
       id="path2" /><path
       style="fill:#ffffff;fill-opacity:0;stroke:#000000;stroke-width:0.0595568;stroke-linecap:round;stroke-linejoin:round;stroke-dasharray:none;stroke-opacity:1"
       d="m 21.259943,4.8821367 c 0,0 -0.443707,1.0918585 -0.414291,1.9360542 -0.106239,0.7553817 0.351256,3.1559511 -0.489908,3.5086831 -0.503552,0 0.380397,0.133963 0.426313,0.861672 0.03316,0.52568 -0.531515,0.894048 -0.531515,0.894048 0,0 0.531039,0.436805 0.539609,0.780988 0.01535,0.616835 -0.402277,0.866994 -0.402277,0.866994 0,0 0.59511,0.04576 0.59511,1.37332 0,1.327545 -0.915556,2.563531 -0.915556,2.563531"
       id="path3"
       sodipodi:nodetypes="cccscscsc" /></g></svg>
